<?xml version="1.0" encoding="UTF-8"?><svg id="Layer_1" xmlns="http://www.w3.org/2000/svg" viewBox="0 0 300 600"><defs><style>.cls-1{fill:#fff;}.cls-2{fill:#db0011;}</style></defs><rect class="cls-2" x="20.27" y="479.79" width="108.73" height="27.5"/><g><path class="cls-1" d="m31.43,492.34h4.03v1.47h-4.03v4.07h-2.04v-9.59h6.33v1.49h-4.28v2.56Z"/><path class="cls-1" d="m36.99,488.3h2.02v1.54h-2.02v-1.54Zm.04,2.89h1.94v6.7h-1.94v-6.7Z"/><path class="cls-1" d="m45.45,494.35c0-.93-.07-1.95-1.26-1.95s-1.41,1.37-1.41,2.12v3.37h-1.94v-5.37c0-.42-.01-.86-.05-1.31h1.92l.03,1.02c.6-.77,1.22-1.13,2.2-1.13,1.63,0,2.44.88,2.44,2.47v4.32h-1.94v-3.54Z"/><path class="cls-1" d="m53.82,497c-.6.7-1.14,1.02-2.08,1.02-2.04,0-2.96-1.6-2.96-3.46,0-1.68.82-3.51,2.89-3.51.93,0,1.59.28,2.16,1.01v-3.75h1.94v7.8c0,.58,0,1.19.05,1.79h-1.95l-.05-.89Zm-1.59-4.73c-1.19,0-1.47,1.23-1.47,2.21,0,1.06.28,2.29,1.58,2.29,1.19,0,1.54-1.29,1.54-2.25,0-1.05-.41-2.25-1.64-2.25Z"/><path class="cls-1" d="m64.99,498.05c-2.23,0-3.62-1.27-3.62-3.53s1.5-3.5,3.67-3.5,3.59,1.27,3.59,3.5-1.45,3.53-3.65,3.53Zm0-5.86c-1.3,0-1.6,1.27-1.6,2.35s.31,2.36,1.6,2.36,1.63-1.3,1.63-2.36-.34-2.35-1.63-2.35Z"/><path class="cls-1" d="m74.66,496.87c-.6.77-1.21,1.13-2.19,1.13-1.64,0-2.44-.86-2.44-2.47v-4.32h1.94v3.55c0,.93.04,1.95,1.25,1.95s1.43-1.07,1.43-2.04v-3.46h1.94v4.22c0,.82,0,1.63.04,2.47h-1.94l-.03-1.02Z"/><path class="cls-1" d="m80.83,495.51c0,.78.04,1.15.94,1.15.21,0,.4-.04.62-.05v1.26c-.46.07-.92.11-1.38.11-1.34,0-2.07-.33-2.07-1.79v-3.73h-1.29v-1.27h1.29v-1.11l1.88-.77v1.88h1.58v1.27h-1.58v3.05Z"/><path class="cls-1" d="m96.87,494.16c0-.92-.13-1.76-1.26-1.76s-1.35.89-1.35,1.83v3.66h-1.94v-3.71c0-.88-.16-1.78-1.23-1.78s-1.38.88-1.38,1.79v3.7h-1.94v-4.46c0-.74-.03-1.47-.05-2.23h1.9l.05,1.05c.52-.82,1.29-1.15,2.24-1.15s1.74.36,2.11,1.29c.52-.9,1.38-1.29,2.39-1.29,1.71,0,2.4,1.06,2.4,2.64v4.15h-1.94v-3.73Z"/><path class="cls-1" d="m103.82,498.05c-2.23,0-3.62-1.27-3.62-3.53s1.5-3.5,3.67-3.5,3.59,1.27,3.59,3.5-1.45,3.53-3.65,3.53Zm0-5.86c-1.3,0-1.6,1.27-1.6,2.35s.31,2.36,1.6,2.36,1.63-1.3,1.63-2.36-.34-2.35-1.63-2.35Z"/><path class="cls-1" d="m112.57,492.82c-1.25,0-1.74.72-1.74,1.91v3.16h-1.94v-5.05c0-.53-.05-1.07-.05-1.63h1.87l.05,1.23c.44-.88,1.1-1.27,2.07-1.27.11,0,.2,0,.32.01v1.68c-.21-.03-.4-.04-.58-.04Z"/><path class="cls-1" d="m117.21,496.88c.78,0,1.23-.38,1.34-1.17h1.88c-.24,1.74-1.68,2.32-3.25,2.32-2.16,0-3.39-1.22-3.39-3.38s1.17-3.63,3.46-3.63c1.3,0,2.44.53,2.96,1.78.28.65.29,1.33.29,2.12h-4.83c-.01,1.01.41,1.96,1.54,1.96Zm.03-4.72c-.96,0-1.53.69-1.53,1.64h2.92c0-1.01-.46-1.64-1.39-1.64Z"/></g></svg>